<?xml version="1.0" encoding="UTF-8" standalone="no"?>
<svg
   xmlns:dc="http://purl.org/dc/elements/1.1/"
   xmlns:cc="http://creativecommons.org/ns#"
   xmlns:rdf="http://www.w3.org/1999/02/22-rdf-syntax-ns#"
   xmlns:svg="http://www.w3.org/2000/svg"
   xmlns="http://www.w3.org/2000/svg"
   xmlns:sodipodi="http://sodipodi.sourceforge.net/DTD/sodipodi-0.dtd"
   xmlns:inkscape="http://www.inkscape.org/namespaces/inkscape"
   inkscape:export-ydpi="768"
   inkscape:export-xdpi="768"
   inkscape:export-filename="E:\TR Design Studio Creative\Project Design\TR Creative Design\Icon Design\Project Hiring\Icon Icons\005 - Crime And Security\Send\4 - Filledline\26 - Theif Mask.png"
   sodipodi:docname="26 - Theif Mask.svg"
   inkscape:version="0.92.4 (5da689c313, 2019-01-14)"
   id="svg979"
   version="1.1"
   viewBox="0 0 16.933334 16.933333"
   height="48pt"
   width="48pt">
  <defs
     id="defs973" />
  <sodipodi:namedview
     inkscape:snap-nodes="false"
     inkscape:bbox-nodes="true"
     inkscape:snap-bbox="true"
     inkscape:document-rotation="0"
     inkscape:window-maximized="1"
     inkscape:window-y="-8"
     inkscape:window-x="-8"
     inkscape:window-height="716"
     inkscape:window-width="1366"
     units="pt"
     showgrid="false"
     inkscape:current-layer="layer1"
     inkscape:document-units="pt"
     inkscape:cy="32"
     inkscape:cx="32"
     inkscape:zoom="8.078125"
     inkscape:pageshadow="2"
     inkscape:pageopacity="0.0"
     borderopacity="1.0"
     bordercolor="#666666"
     pagecolor="#ffffff"
     id="base"
     showguides="false">
    <inkscape:grid
       id="grid1526"
       type="xygrid" />
    <sodipodi:guide
       inkscape:locked="false"
       id="guide1528"
       orientation="56.666615,0"
       position="0.97013909,15.963209" />
    <sodipodi:guide
       inkscape:locked="false"
       id="guide1530"
       orientation="0,56.666667"
       position="0.97013909,0.97016731" />
    <sodipodi:guide
       inkscape:locked="false"
       id="guide1532"
       orientation="-56.666615,0"
       position="15.963195,0.97016731" />
    <sodipodi:guide
       inkscape:locked="false"
       id="guide1534"
       orientation="0,-56.666667"
       position="15.963195,15.963209" />
  </sodipodi:namedview>
  <metadata
     id="metadata976">
    <rdf:RDF>
      <cc:Work
         rdf:about="">
        <dc:format>image/svg+xml</dc:format>
        <dc:type
           rdf:resource="http://purl.org/dc/dcmitype/StillImage" />
        <dc:title></dc:title>
      </cc:Work>
    </rdf:RDF>
  </metadata>
  <g
     transform="translate(0,-280.06668)"
     id="layer1"
     inkscape:groupmode="layer"
     inkscape:label="Layer 1">
    <g
       id="g16204"
       transform="matrix(1.2319754,0,0,1.2319754,-1.5403735,-66.831761)">
      <g
         id="g5489"
         style="display:inline"
         transform="translate(23.785759,-68.238966)">
        <path
           style="color:#000000;font-style:normal;font-variant:normal;font-weight:normal;font-stretch:normal;font-size:medium;line-height:normal;font-family:sans-serif;font-variant-ligatures:normal;font-variant-position:normal;font-variant-caps:normal;font-variant-numeric:normal;font-variant-alternates:normal;font-feature-settings:normal;text-indent:0;text-align:start;text-decoration:none;text-decoration-line:none;text-decoration-style:solid;text-decoration-color:#000000;letter-spacing:normal;word-spacing:normal;text-transform:none;writing-mode:lr-tb;direction:ltr;text-orientation:mixed;dominant-baseline:auto;baseline-shift:baseline;text-anchor:start;white-space:normal;shape-padding:0;clip-rule:nonzero;display:inline;overflow:visible;visibility:visible;opacity:1;isolation:auto;mix-blend-mode:normal;color-interpolation:sRGB;color-interpolation-filters:linearRGB;solid-color:#000000;solid-opacity:1;vector-effect:none;fill:#5b6571;fill-opacity:1;fill-rule:nonzero;stroke:none;stroke-width:0.529167;stroke-linecap:round;stroke-linejoin:round;stroke-miterlimit:4;stroke-dasharray:none;stroke-dashoffset:0;stroke-opacity:1;color-rendering:auto;image-rendering:auto;shape-rendering:auto;text-rendering:auto;enable-background:accumulate"
           d="m -15.664062,350.60547 c -0.806735,0 -1.865625,0.071 -2.736329,0.72851 -0.869739,0.65674 -1.494708,1.88399 -1.496093,4.02735 -2.34e-4,0.005 -0.03448,0.79916 0.283203,1.68945 0.318756,0.8933 1.022479,1.91138 2.441406,2.27734 a 0.26460995,0.26460995 0 0 0 0.06641,0.008 h 2.884766 a 0.26460995,0.26460995 0 0 0 0.06641,-0.008 c 1.418926,-0.36596 2.12265,-1.38404 2.441406,-2.27734 0.317685,-0.89029 0.283437,-1.68408 0.283203,-1.68945 -0.0014,-2.14335 -0.628307,-3.37061 -1.498046,-4.02735 -0.870704,-0.65746 -1.929594,-0.72851 -2.736328,-0.72851 z"
           id="path2973"
           inkscape:connector-curvature="0" />
        <path
           style="color:#000000;font-style:normal;font-variant:normal;font-weight:normal;font-stretch:normal;font-size:medium;line-height:normal;font-family:sans-serif;font-variant-ligatures:normal;font-variant-position:normal;font-variant-caps:normal;font-variant-numeric:normal;font-variant-alternates:normal;font-feature-settings:normal;text-indent:0;text-align:start;text-decoration:none;text-decoration-line:none;text-decoration-style:solid;text-decoration-color:#000000;letter-spacing:normal;word-spacing:normal;text-transform:none;writing-mode:lr-tb;direction:ltr;text-orientation:mixed;dominant-baseline:auto;baseline-shift:baseline;text-anchor:start;white-space:normal;shape-padding:0;clip-rule:nonzero;display:inline;overflow:visible;visibility:visible;opacity:1;isolation:auto;mix-blend-mode:normal;color-interpolation:sRGB;color-interpolation-filters:linearRGB;solid-color:#000000;solid-opacity:1;vector-effect:none;fill:#314351;fill-opacity:1;fill-rule:nonzero;stroke:none;stroke-width:0.529167;stroke-linecap:round;stroke-linejoin:round;stroke-miterlimit:4;stroke-dasharray:none;stroke-dashoffset:0;stroke-opacity:1;color-rendering:auto;image-rendering:auto;shape-rendering:auto;text-rendering:auto;enable-background:accumulate"
           d="m -15.66416,350.60551 c -0.806735,0 -1.865563,0.0711 -2.736267,0.72864 -0.01075,0.008 -0.02085,0.0175 -0.03152,0.0258 2.012665,0.0995 3.945673,1.43369 4.441073,3.4153 0.303753,1.21501 -0.547105,2.23359 -0.724504,3.29798 -0.07254,0.43527 -0.06204,0.85857 0.01499,1.26298 h 0.479558 a 0.26460995,0.26460995 0 0 0 0.06666,-0.008 c 1.418926,-0.36596 2.122438,-1.38408 2.441194,-2.27738 0.317685,-0.89029 0.283421,-1.68393 0.283187,-1.6893 -0.0014,-2.14335 -0.628361,-3.3704 -1.4981,-4.02715 -0.870704,-0.65746 -1.929533,-0.72863 -2.736267,-0.72863 z"
           id="path3189"
           inkscape:connector-curvature="0" />
        <path
           style="color:#000000;font-style:normal;font-variant:normal;font-weight:normal;font-stretch:normal;font-size:medium;line-height:normal;font-family:sans-serif;font-variant-ligatures:normal;font-variant-position:normal;font-variant-caps:normal;font-variant-numeric:normal;font-variant-alternates:normal;font-feature-settings:normal;text-indent:0;text-align:start;text-decoration:none;text-decoration-line:none;text-decoration-style:solid;text-decoration-color:#000000;letter-spacing:normal;word-spacing:normal;text-transform:none;writing-mode:lr-tb;direction:ltr;text-orientation:mixed;dominant-baseline:auto;baseline-shift:baseline;text-anchor:start;white-space:normal;shape-padding:0;clip-rule:nonzero;display:inline;overflow:visible;visibility:visible;opacity:1;isolation:auto;mix-blend-mode:normal;color-interpolation:sRGB;color-interpolation-filters:linearRGB;solid-color:#000000;solid-opacity:1;vector-effect:none;fill:#f5f6e8;fill-opacity:1;fill-rule:nonzero;stroke:none;stroke-width:0.47510955;stroke-linecap:round;stroke-linejoin:round;stroke-miterlimit:4;stroke-dasharray:none;stroke-dashoffset:0;stroke-opacity:1;color-rendering:auto;image-rendering:auto;shape-rendering:auto;text-rendering:auto;enable-background:accumulate"
           d="m -13.719075,353.74219 c -0.485034,0.0391 -1.089602,0.18541 -1.473026,0.67338 a 0.23757853,0.23757853 0 0 0 -0.04735,0.11047 c -0.127186,0.80065 0.872461,1.45926 1.688719,0.91889 0.716355,-0.44144 0.904859,-1.38184 0.904859,-1.38184 a 0.23757853,0.23757853 0 0 0 -0.189389,-0.28758 c 0,0 -0.398782,-0.0725 -0.883815,-0.0333 z"
           id="path2977"
           inkscape:connector-curvature="0" />
        <path
           style="color:#000000;font-style:normal;font-variant:normal;font-weight:normal;font-stretch:normal;font-size:medium;line-height:normal;font-family:sans-serif;font-variant-ligatures:normal;font-variant-position:normal;font-variant-caps:normal;font-variant-numeric:normal;font-variant-alternates:normal;font-feature-settings:normal;text-indent:0;text-align:start;text-decoration:none;text-decoration-line:none;text-decoration-style:solid;text-decoration-color:#000000;letter-spacing:normal;word-spacing:normal;text-transform:none;writing-mode:lr-tb;direction:ltr;text-orientation:mixed;dominant-baseline:auto;baseline-shift:baseline;text-anchor:start;white-space:normal;shape-padding:0;clip-rule:nonzero;display:inline;overflow:visible;visibility:visible;opacity:1;isolation:auto;mix-blend-mode:normal;color-interpolation:sRGB;color-interpolation-filters:linearRGB;solid-color:#000000;solid-opacity:1;vector-effect:none;fill:#f5f6e8;fill-opacity:1;fill-rule:nonzero;stroke:none;stroke-width:0.47510955;stroke-linecap:round;stroke-linejoin:round;stroke-miterlimit:4;stroke-dasharray:none;stroke-dashoffset:0;stroke-opacity:1;color-rendering:auto;image-rendering:auto;shape-rendering:auto;text-rendering:auto;enable-background:accumulate"
           d="m -17.607193,353.74219 c -0.485034,-0.0392 -0.883816,0.0333 -0.883816,0.0333 a 0.23757853,0.23757853 0 0 0 -0.191142,0.28758 c 0,0 0.190251,0.9404 0.906613,1.38184 0.816257,0.54037 1.815903,-0.11824 1.688718,-0.91889 a 0.23757853,0.23757853 0 0 0 -0.0491,-0.11047 c -0.383424,-0.48797 -0.986238,-0.63426 -1.471271,-0.67338 z"
           id="path2981"
           inkscape:connector-curvature="0" />
        <path
           style="color:#000000;font-style:normal;font-variant:normal;font-weight:normal;font-stretch:normal;font-size:medium;line-height:normal;font-family:sans-serif;font-variant-ligatures:normal;font-variant-position:normal;font-variant-caps:normal;font-variant-numeric:normal;font-variant-alternates:normal;font-feature-settings:normal;text-indent:0;text-align:start;text-decoration:none;text-decoration-line:none;text-decoration-style:solid;text-decoration-color:#000000;letter-spacing:normal;word-spacing:normal;text-transform:none;writing-mode:lr-tb;direction:ltr;text-orientation:mixed;dominant-baseline:auto;baseline-shift:baseline;text-anchor:start;white-space:normal;shape-padding:0;clip-rule:nonzero;display:inline;overflow:visible;visibility:visible;opacity:1;isolation:auto;mix-blend-mode:normal;color-interpolation:sRGB;color-interpolation-filters:linearRGB;solid-color:#000000;solid-opacity:1;vector-effect:none;fill:#5b6571;fill-opacity:1;fill-rule:nonzero;stroke:none;stroke-width:0.529167;stroke-linecap:round;stroke-linejoin:round;stroke-miterlimit:4;stroke-dasharray:none;stroke-dashoffset:0;stroke-opacity:1;color-rendering:auto;image-rendering:auto;shape-rendering:auto;text-rendering:auto;enable-background:accumulate"
           d="m -15.746094,357.35156 a 0.26460995,0.26460995 0 0 0 -0.08203,0.0176 l -2.578125,0.97461 a 0.26460995,0.26460995 0 0 0 -0.171875,0.25781 c 0.01157,0.30659 -0.02937,0.50783 -0.111328,0.66211 -0.08196,0.15428 -0.210209,0.27717 -0.425781,0.4043 a 0.26460995,0.26460995 0 0 0 0.002,0.45703 l 3.246093,1.85938 a 0.26460995,0.26460995 0 0 0 0.263672,0 l 3.246094,-1.85938 a 0.26460995,0.26460995 0 0 0 0.0039,-0.45703 c -0.215572,-0.12713 -0.343824,-0.25002 -0.425781,-0.4043 -0.08196,-0.15428 -0.124852,-0.35552 -0.113281,-0.66211 a 0.26460995,0.26460995 0 0 0 -0.169922,-0.25781 l -2.578125,-0.97461 a 0.26460995,0.26460995 0 0 0 -0.105469,-0.0176 z"
           id="path2985"
           inkscape:connector-curvature="0" />
        <path
           style="color:#000000;font-style:normal;font-variant:normal;font-weight:normal;font-stretch:normal;font-size:medium;line-height:normal;font-family:sans-serif;font-variant-ligatures:normal;font-variant-position:normal;font-variant-caps:normal;font-variant-numeric:normal;font-variant-alternates:normal;font-feature-settings:normal;text-indent:0;text-align:start;text-decoration:none;text-decoration-line:none;text-decoration-style:solid;text-decoration-color:#000000;letter-spacing:normal;word-spacing:normal;text-transform:none;writing-mode:lr-tb;direction:ltr;text-orientation:mixed;dominant-baseline:auto;baseline-shift:baseline;text-anchor:start;white-space:normal;shape-padding:0;clip-rule:nonzero;display:inline;overflow:visible;visibility:visible;opacity:1;isolation:auto;mix-blend-mode:normal;color-interpolation:sRGB;color-interpolation-filters:linearRGB;solid-color:#000000;solid-opacity:1;vector-effect:none;fill:#314351;fill-opacity:1;fill-rule:nonzero;stroke:none;stroke-width:0.529167;stroke-linecap:round;stroke-linejoin:round;stroke-miterlimit:4;stroke-dasharray:none;stroke-dashoffset:0;stroke-opacity:1;color-rendering:auto;image-rendering:auto;shape-rendering:auto;text-rendering:auto;enable-background:accumulate"
           d="m -14.64045,357.74668 c -0.03045,0.10862 -0.05671,0.21728 -0.07493,0.32659 -0.182956,1.09774 0.158293,2.11829 0.785999,2.95176 l 1.571997,-0.9002 a 0.26460995,0.26460995 0 0 0 0.0041,-0.45682 c -0.215572,-0.12713 -0.343857,-0.24983 -0.425814,-0.40411 -0.08196,-0.15428 -0.125259,-0.3559 -0.113688,-0.66249 a 0.26460995,0.26460995 0 0 0 -0.169499,-0.25787 z"
           id="path3194"
           inkscape:connector-curvature="0" />
        <path
           style="color:#000000;font-style:normal;font-variant:normal;font-weight:normal;font-stretch:normal;font-size:medium;line-height:normal;font-family:sans-serif;font-variant-ligatures:normal;font-variant-position:normal;font-variant-caps:normal;font-variant-numeric:normal;font-variant-alternates:normal;font-feature-settings:normal;text-indent:0;text-align:start;text-decoration:none;text-decoration-line:none;text-decoration-style:solid;text-decoration-color:#000000;letter-spacing:normal;word-spacing:normal;text-transform:none;writing-mode:lr-tb;direction:ltr;text-orientation:mixed;dominant-baseline:auto;baseline-shift:baseline;text-anchor:start;white-space:normal;shape-padding:0;clip-rule:nonzero;display:inline;overflow:visible;visibility:visible;opacity:1;isolation:auto;mix-blend-mode:normal;color-interpolation:sRGB;color-interpolation-filters:linearRGB;solid-color:#000000;solid-opacity:1;vector-effect:none;fill:#3a4d5c;fill-opacity:1;fill-rule:nonzero;stroke:none;stroke-width:0.529167;stroke-linecap:round;stroke-linejoin:round;stroke-miterlimit:4;stroke-dasharray:none;stroke-dashoffset:0;stroke-opacity:1;color-rendering:auto;image-rendering:auto;shape-rendering:auto;text-rendering:auto;enable-background:accumulate"
           d="m -19.025391,359.62891 c -0.198275,-0.008 -0.392451,0.0127 -0.560547,0.12695 -0.269724,0.18324 -0.479789,0.46614 -0.554687,0.80469 -0.0749,0.33854 0.0017,0.73194 0.275391,1.06836 0.547285,0.67282 1.78381,1.14648 4.201172,1.14648 2.417361,0 3.655839,-0.47366 4.203124,-1.14648 0.273643,-0.33642 0.350289,-0.72982 0.275391,-1.06836 -0.0749,-0.33855 -0.284962,-0.62145 -0.554687,-0.80469 -0.168096,-0.1142 -0.362272,-0.1354 -0.560547,-0.12695 -0.198276,0.008 -0.412327,0.0501 -0.646485,0.10742 -0.463274,0.11341 -1.007543,0.29268 -1.591796,0.44336 -0.0013,2.4e-4 -0.0026,-2.4e-4 -0.0039,0 -0.732116,0.13553 -1.436005,0.22066 -2.222656,0.004 a 0.26460995,0.26460995 0 0 0 -0.0039,0 c -0.591496,-0.15169 -1.143013,-0.33262 -1.611328,-0.44726 -0.234158,-0.0573 -0.446256,-0.099 -0.644532,-0.10742 z"
           id="path2989"
           inkscape:connector-curvature="0" />
        <path
           style="display:inline;opacity:1;vector-effect:none;fill:#232f38;fill-opacity:1;stroke:none;stroke-width:0.52916664;stroke-linecap:butt;stroke-linejoin:miter;stroke-miterlimit:4;stroke-dasharray:none;stroke-dashoffset:0;stroke-opacity:1;paint-order:stroke fill markers"
           d="m -19.025195,359.62874 c -0.198275,-0.008 -0.392593,0.0129 -0.560689,0.12712 -0.269724,0.18324 -0.479591,0.46605 -0.554489,0.8046 -0.01212,0.0548 -0.01926,0.11128 -0.02325,0.16847 2.844526,0.0493 3.608796,1.68842 6.100403,0.89658 0.433696,-0.14456 1.099867,-0.95436 1.630908,-0.68884 0.399847,0.19992 0.494762,0.6308 0.689364,0.96893 0.108678,-0.0877 0.203486,-0.17976 0.282153,-0.27647 0.273643,-0.33642 0.350333,-0.73013 0.275435,-1.06867 -0.0749,-0.33855 -0.285279,-0.62136 -0.555004,-0.8046 -0.168096,-0.1142 -0.361898,-0.13558 -0.560173,-0.12712 -0.198276,0.008 -0.412314,0.0502 -0.646472,0.10748 -0.463274,0.11341 -1.007898,0.29271 -1.592151,0.44339 -0.0013,2.4e-4 -0.0023,-2.4e-4 -0.0036,0 -0.732116,0.13553 -1.435952,0.22079 -2.222603,0.004 -0.0014,-10e-6 -0.0028,-10e-6 -0.0041,0 -0.591496,-0.15169 -1.142957,-0.33287 -1.611271,-0.44752 -0.234159,-0.0573 -0.446129,-0.0985 -0.644406,-0.10697 z"
           id="path3204"
           inkscape:connector-curvature="0"
           sodipodi:nodetypes="ccccccccccccccccccc" />
      </g>
      <path
         sodipodi:nodetypes="cccccccccsccccccccccccscccsccccccccccccscccccccccccccccsccccccccccccccccccccccccccccccccc"
         inkscape:connector-curvature="0"
         id="path3737"
         d="m 5.3853313,283.0952 c -0.869739,0.65674 -1.494648,1.88378 -1.4960331,4.02714 -2.339e-4,0.005 -0.0345,0.79902 0.2831871,1.68931 0.188037,0.52696 0.511838,1.09648 1.035596,1.55081 0.01391,0.23593 -0.04641,0.4692 -0.111634,0.66249 -0.07352,0.13839 -0.188233,0.25124 -0.365869,0.36483 -0.187774,-0.005 -0.371143,0.0187 -0.530717,0.12713 -0.269724,0.18324 -0.47959,0.46605 -0.554488,0.8046 -0.0749,0.33854 0.0012,0.73225 0.274919,1.06867 0.547285,0.67282 1.783932,1.14618 4.2012939,1.14618 2.4173608,0 3.6560758,-0.47336 4.2033608,-1.14618 0.273644,-0.33642 0.350334,-0.73013 0.275436,-1.06867 -0.0749,-0.33855 -0.285281,-0.62136 -0.555006,-0.8046 -0.168096,-0.1142 -0.361898,-0.13558 -0.560172,-0.12713 -0.03089,0.001 -0.06496,0.008 -0.09663,0.0109 -0.187665,-0.11725 -0.306042,-0.23291 -0.381889,-0.37569 -0.07054,-0.13278 -0.109806,-0.3051 -0.112655,-0.54467 0.609536,-0.47081 0.974067,-1.09504 1.17874,-1.66863 0.317685,-0.89029 0.283421,-1.68393 0.283187,-1.6893 -0.0014,-2.14335 -0.628361,-3.37041 -1.4981,-4.02715 -0.8707038,-0.65751 -1.9295328,-0.72868 -2.7362619,-0.72868 -0.8067281,0 -1.865556,0.0711 -2.73626,0.72864 z m 2.7362671,-0.20154 c 0.7729159,0 1.699182,0.0805 2.4179396,0.62322 0.718759,0.54273 1.28726,1.56384 1.28726,3.61115 -8.9e-5,0.004 -8.9e-5,0.008 0,0.0119 0,0 0.02889,0.70627 -0.252181,1.49397 -0.28107,0.78767 -0.841138,1.62303 -2.0758417,1.94148 -0.3400009,0.09 -0.2081929,0.59976 0.1328082,0.51366 0.2799879,-0.0722 0.5312635,-0.17029 0.7580935,-0.28732 0.02728,0.17192 0.07463,0.32967 0.149861,0.47129 0.05018,0.0945 0.114543,0.17722 0.184485,0.2558 -0.444066,0.11473 -0.9482067,0.27577 -1.4949986,0.41599 -0.3709069,0.0688 -0.227684,0.62921 0.1307409,0.5116 0.6128042,-0.15715 1.1705337,-0.33895 1.6055867,-0.44545 0.217526,-0.0532 0.403251,-0.0877 0.541052,-0.0935 0.137801,-0.006 0.216906,0.0199 0.242363,0.0372 0.161874,0.10997 0.291349,0.29012 0.33383,0.48214 0.04248,0.19202 0.01458,0.39469 -0.167949,0.61909 -0.365054,0.4488 -1.447912,0.95136 -3.7930496,0.95136 -2.3451381,0 -3.4259301,-0.50257 -3.7909831,-0.95136 -0.182527,-0.22439 -0.21043,-0.42707 -0.167949,-0.61909 0.04248,-0.19202 0.171954,-0.37217 0.33383,-0.48214 0.02546,-0.0173 0.102495,-0.0431 0.240296,-0.0372 0.137801,0.006 0.325592,0.0403 0.543119,0.0935 0.435052,0.1065 0.992783,0.2883 1.6055871,0.44545 0.358425,0.11761 0.5016468,-0.44282 0.130741,-0.5116 -0.5906972,-0.15148 -1.1412971,-0.33233 -1.6092041,-0.447 0.05873,-0.0698 0.112582,-0.14294 0.156063,-0.22479 0.0858,-0.16152 0.134152,-0.34448 0.157613,-0.54571 0.260804,0.15016 0.5558509,0.27479 0.892969,0.36174 0.3439091,0.091 0.4777452,-0.4266 0.1328081,-0.51366 -1.2347061,-0.31845 -1.7947721,-1.15381 -2.0758421,-1.94148 -0.281071,-0.7877 -0.252181,-1.49397 -0.252181,-1.49397 0,-1.26881 0.348972,-2.88334 1.28726,-3.62303 0.7187581,-0.54273 1.6429561,-0.62322 2.4158731,-0.62322 z m -2.3502441,2.48977 c -0.352825,0.004 -0.602547,0.0496 -0.602547,0.0496 -0.149837,0.0258 -0.247165,0.17226 -0.212907,0.3204 0,0 0.211889,1.04725 1.009757,1.53892 0.90913,0.60185 2.022162,-0.13196 1.8805062,-1.02371 -0.0073,-0.045 -0.02622,-0.0874 -0.05478,-0.12299 -0.4270489,-0.54349 -1.0984399,-0.70626 -1.63866,-0.74983 -0.130837,-0.0115 -0.26597,-0.0105 -0.381372,-0.0124 z m 4.7025547,0 c -0.117608,-10e-4 -0.246317,0.002 -0.381372,0.0124 -0.5402206,0.0436 -1.2136775,0.20634 -1.6407267,0.74983 -0.02782,0.0358 -0.04597,0.0781 -0.05271,0.12299 -0.1416558,0.89175 0.9718911,1.62556 1.8810227,1.02371 0.797861,-0.49167 1.00769,-1.53893 1.00769,-1.53893 0.03431,-0.14744 -0.06185,-0.29357 -0.21084,-0.32039 0,0 -0.25024,-0.0453 -0.603064,-0.0496 z m -4.6183227,0.5364 c 0.06098,-0.004 0.132578,-0.005 0.254248,0.005 0.4311361,0.0348 0.8743201,0.20001 1.1699549,0.50798 -0.0195,0.38701 -0.4733298,0.78892 -1.0252609,0.41961 -0.328848,-0.21938 -0.470208,-0.57519 -0.588078,-0.91416 0.07778,-0.006 0.128158,-0.0143 0.189136,-0.0186 z m 4.5330567,0 c 0.06064,0.004 0.110381,0.0127 0.188102,0.0191 -0.205234,0.41476 -0.285885,0.72136 -0.5860095,0.91415 -0.5522952,0.36955 -1.008448,-0.0329 -1.0273282,-0.42013 0.2956291,-0.30804 0.7408411,-0.47269 1.1720217,-0.50746 v -5.3e-4 c 0.121135,-0.01 0.192577,-0.009 0.253214,-0.005 z"
         style="color:#000000;font-style:normal;font-variant:normal;font-weight:normal;font-stretch:normal;font-size:medium;line-height:normal;font-family:sans-serif;font-variant-ligatures:normal;font-variant-position:normal;font-variant-caps:normal;font-variant-numeric:normal;font-variant-alternates:normal;font-feature-settings:normal;text-indent:0;text-align:start;text-decoration:none;text-decoration-line:none;text-decoration-style:solid;text-decoration-color:#000000;letter-spacing:normal;word-spacing:normal;text-transform:none;writing-mode:lr-tb;direction:ltr;text-orientation:mixed;dominant-baseline:auto;baseline-shift:baseline;text-anchor:start;white-space:normal;shape-padding:0;clip-rule:nonzero;display:inline;overflow:visible;visibility:visible;opacity:1;isolation:auto;mix-blend-mode:normal;color-interpolation:sRGB;color-interpolation-filters:linearRGB;solid-color:#000000;solid-opacity:1;vector-effect:none;fill:#000000;fill-opacity:1;fill-rule:nonzero;stroke:none;stroke-width:0.529167;stroke-linecap:round;stroke-linejoin:round;stroke-miterlimit:4;stroke-dasharray:none;stroke-dashoffset:0;stroke-opacity:1;color-rendering:auto;image-rendering:auto;shape-rendering:auto;text-rendering:auto;enable-background:accumulate" />
    </g>
  </g>
</svg>
